<mxfile host="app.diagrams.net" modified="2024-04-14T16:49:14.891Z" agent="Mozilla/5.0 (Macintosh; Intel Mac OS X 10_15_7) AppleWebKit/537.36 (KHTML, like Gecko) Chrome/123.0.0.0 Safari/537.36" etag="hXnYNQq8tse3vdZ8WkDP" version="24.2.2" type="github" pages="6">
  <diagram name="1" id="YE1TAmApZvhlKCIu9yRy">
    <mxGraphModel dx="1134" dy="690" grid="1" gridSize="10" guides="1" tooltips="1" connect="1" arrows="1" fold="1" page="1" pageScale="1" pageWidth="850" pageHeight="1100" math="0" shadow="0">
      <root>
        <mxCell id="0" />
        <mxCell id="1" parent="0" />
        <mxCell id="MP4qknM3CVN4eRaGPUhc-1" value="" style="rounded=0;whiteSpace=wrap;html=1;" vertex="1" parent="1">
          <mxGeometry x="320" y="40" width="205" height="80" as="geometry" />
        </mxCell>
        <mxCell id="MP4qknM3CVN4eRaGPUhc-2" value="Início" style="rounded=0;whiteSpace=wrap;html=1;" vertex="1" parent="1">
          <mxGeometry x="320" y="80" width="100" height="40" as="geometry" />
        </mxCell>
        <mxCell id="MP4qknM3CVN4eRaGPUhc-3" value="Fim" style="rounded=0;whiteSpace=wrap;html=1;" vertex="1" parent="1">
          <mxGeometry x="420" y="80" width="105" height="40" as="geometry" />
        </mxCell>
        <mxCell id="MP4qknM3CVN4eRaGPUhc-6" style="edgeStyle=orthogonalEdgeStyle;rounded=0;orthogonalLoop=1;jettySize=auto;html=1;exitX=0.5;exitY=1;exitDx=0;exitDy=0;entryX=0;entryY=0;entryDx=0;entryDy=0;" edge="1" parent="1" source="MP4qknM3CVN4eRaGPUhc-4" target="MP4qknM3CVN4eRaGPUhc-3">
          <mxGeometry relative="1" as="geometry" />
        </mxCell>
        <mxCell id="MP4qknM3CVN4eRaGPUhc-4" value="Lista" style="text;html=1;align=center;verticalAlign=middle;whiteSpace=wrap;rounded=0;" vertex="1" parent="1">
          <mxGeometry x="392.5" y="40" width="60" height="30" as="geometry" />
        </mxCell>
        <mxCell id="MP4qknM3CVN4eRaGPUhc-10" value="" style="group" vertex="1" connectable="0" parent="1">
          <mxGeometry x="442.5" y="160" width="60" height="20" as="geometry" />
        </mxCell>
        <mxCell id="MP4qknM3CVN4eRaGPUhc-7" value="" style="endArrow=none;html=1;rounded=0;" edge="1" parent="MP4qknM3CVN4eRaGPUhc-10">
          <mxGeometry width="50" height="50" relative="1" as="geometry">
            <mxPoint as="sourcePoint" />
            <mxPoint x="60" as="targetPoint" />
          </mxGeometry>
        </mxCell>
        <mxCell id="MP4qknM3CVN4eRaGPUhc-8" value="" style="endArrow=none;html=1;rounded=0;" edge="1" parent="MP4qknM3CVN4eRaGPUhc-10">
          <mxGeometry width="50" height="50" relative="1" as="geometry">
            <mxPoint x="10" y="10" as="sourcePoint" />
            <mxPoint x="50" y="10" as="targetPoint" />
            <Array as="points">
              <mxPoint x="17.5" y="10" />
            </Array>
          </mxGeometry>
        </mxCell>
        <mxCell id="MP4qknM3CVN4eRaGPUhc-9" value="" style="endArrow=none;html=1;rounded=0;" edge="1" parent="MP4qknM3CVN4eRaGPUhc-10">
          <mxGeometry width="50" height="50" relative="1" as="geometry">
            <mxPoint x="20" y="20" as="sourcePoint" />
            <mxPoint x="40" y="20" as="targetPoint" />
          </mxGeometry>
        </mxCell>
        <mxCell id="MP4qknM3CVN4eRaGPUhc-11" value="" style="group" vertex="1" connectable="0" parent="1">
          <mxGeometry x="340" y="160" width="60" height="20" as="geometry" />
        </mxCell>
        <mxCell id="MP4qknM3CVN4eRaGPUhc-12" value="" style="endArrow=none;html=1;rounded=0;" edge="1" parent="MP4qknM3CVN4eRaGPUhc-11">
          <mxGeometry width="50" height="50" relative="1" as="geometry">
            <mxPoint as="sourcePoint" />
            <mxPoint x="60" as="targetPoint" />
          </mxGeometry>
        </mxCell>
        <mxCell id="MP4qknM3CVN4eRaGPUhc-13" value="" style="endArrow=none;html=1;rounded=0;" edge="1" parent="MP4qknM3CVN4eRaGPUhc-11">
          <mxGeometry width="50" height="50" relative="1" as="geometry">
            <mxPoint x="10" y="10" as="sourcePoint" />
            <mxPoint x="50" y="10" as="targetPoint" />
          </mxGeometry>
        </mxCell>
        <mxCell id="MP4qknM3CVN4eRaGPUhc-14" value="" style="endArrow=none;html=1;rounded=0;" edge="1" parent="MP4qknM3CVN4eRaGPUhc-11">
          <mxGeometry width="50" height="50" relative="1" as="geometry">
            <mxPoint x="20" y="20" as="sourcePoint" />
            <mxPoint x="40" y="20" as="targetPoint" />
          </mxGeometry>
        </mxCell>
        <mxCell id="MP4qknM3CVN4eRaGPUhc-15" value="" style="endArrow=classic;html=1;rounded=0;exitX=0.5;exitY=1;exitDx=0;exitDy=0;" edge="1" parent="1" source="MP4qknM3CVN4eRaGPUhc-2">
          <mxGeometry width="50" height="50" relative="1" as="geometry">
            <mxPoint x="400" y="260" as="sourcePoint" />
            <mxPoint x="370" y="160" as="targetPoint" />
          </mxGeometry>
        </mxCell>
        <mxCell id="MP4qknM3CVN4eRaGPUhc-17" value="" style="endArrow=classic;html=1;rounded=0;exitX=0.5;exitY=1;exitDx=0;exitDy=0;" edge="1" parent="1">
          <mxGeometry width="50" height="50" relative="1" as="geometry">
            <mxPoint x="472" y="120" as="sourcePoint" />
            <mxPoint x="472" y="160" as="targetPoint" />
          </mxGeometry>
        </mxCell>
      </root>
    </mxGraphModel>
  </diagram>
  <diagram name="2" id="j5eO5Zb3z3YCMHuBFOMu">
    <mxGraphModel dx="1134" dy="690" grid="1" gridSize="10" guides="1" tooltips="1" connect="1" arrows="1" fold="1" page="1" pageScale="1" pageWidth="850" pageHeight="1100" math="0" shadow="0">
      <root>
        <mxCell id="xoYDqxQ6D_OFkGm3SUuN-0" />
        <mxCell id="xoYDqxQ6D_OFkGm3SUuN-1" parent="xoYDqxQ6D_OFkGm3SUuN-0" />
        <mxCell id="xoYDqxQ6D_OFkGm3SUuN-2" value="" style="rounded=0;whiteSpace=wrap;html=1;" vertex="1" parent="xoYDqxQ6D_OFkGm3SUuN-1">
          <mxGeometry x="320" y="40" width="205" height="80" as="geometry" />
        </mxCell>
        <mxCell id="xoYDqxQ6D_OFkGm3SUuN-3" value="Início" style="rounded=0;whiteSpace=wrap;html=1;" vertex="1" parent="xoYDqxQ6D_OFkGm3SUuN-1">
          <mxGeometry x="320" y="80" width="100" height="40" as="geometry" />
        </mxCell>
        <mxCell id="xoYDqxQ6D_OFkGm3SUuN-4" value="Fim" style="rounded=0;whiteSpace=wrap;html=1;" vertex="1" parent="xoYDqxQ6D_OFkGm3SUuN-1">
          <mxGeometry x="420" y="80" width="105" height="40" as="geometry" />
        </mxCell>
        <mxCell id="xoYDqxQ6D_OFkGm3SUuN-5" style="edgeStyle=orthogonalEdgeStyle;rounded=0;orthogonalLoop=1;jettySize=auto;html=1;exitX=0.5;exitY=1;exitDx=0;exitDy=0;entryX=0;entryY=0;entryDx=0;entryDy=0;" edge="1" parent="xoYDqxQ6D_OFkGm3SUuN-1" source="xoYDqxQ6D_OFkGm3SUuN-6" target="xoYDqxQ6D_OFkGm3SUuN-4">
          <mxGeometry relative="1" as="geometry" />
        </mxCell>
        <mxCell id="xoYDqxQ6D_OFkGm3SUuN-6" value="Lista" style="text;html=1;align=center;verticalAlign=middle;whiteSpace=wrap;rounded=0;" vertex="1" parent="xoYDqxQ6D_OFkGm3SUuN-1">
          <mxGeometry x="392.5" y="40" width="60" height="30" as="geometry" />
        </mxCell>
        <mxCell id="xoYDqxQ6D_OFkGm3SUuN-7" value="" style="group" vertex="1" connectable="0" parent="xoYDqxQ6D_OFkGm3SUuN-1">
          <mxGeometry x="442.5" y="160" width="60" height="20" as="geometry" />
        </mxCell>
        <mxCell id="xoYDqxQ6D_OFkGm3SUuN-8" value="" style="endArrow=none;html=1;rounded=0;" edge="1" parent="xoYDqxQ6D_OFkGm3SUuN-7">
          <mxGeometry width="50" height="50" relative="1" as="geometry">
            <mxPoint as="sourcePoint" />
            <mxPoint x="60" as="targetPoint" />
          </mxGeometry>
        </mxCell>
        <mxCell id="xoYDqxQ6D_OFkGm3SUuN-9" value="" style="endArrow=none;html=1;rounded=0;" edge="1" parent="xoYDqxQ6D_OFkGm3SUuN-7">
          <mxGeometry width="50" height="50" relative="1" as="geometry">
            <mxPoint x="10" y="10" as="sourcePoint" />
            <mxPoint x="50" y="10" as="targetPoint" />
            <Array as="points">
              <mxPoint x="17.5" y="10" />
            </Array>
          </mxGeometry>
        </mxCell>
        <mxCell id="xoYDqxQ6D_OFkGm3SUuN-10" value="" style="endArrow=none;html=1;rounded=0;" edge="1" parent="xoYDqxQ6D_OFkGm3SUuN-7">
          <mxGeometry width="50" height="50" relative="1" as="geometry">
            <mxPoint x="20" y="20" as="sourcePoint" />
            <mxPoint x="40" y="20" as="targetPoint" />
          </mxGeometry>
        </mxCell>
        <mxCell id="xoYDqxQ6D_OFkGm3SUuN-11" value="" style="group" vertex="1" connectable="0" parent="xoYDqxQ6D_OFkGm3SUuN-1">
          <mxGeometry x="340" y="160" width="60" height="20" as="geometry" />
        </mxCell>
        <mxCell id="xoYDqxQ6D_OFkGm3SUuN-12" value="" style="endArrow=none;html=1;rounded=0;" edge="1" parent="xoYDqxQ6D_OFkGm3SUuN-11">
          <mxGeometry width="50" height="50" relative="1" as="geometry">
            <mxPoint as="sourcePoint" />
            <mxPoint x="60" as="targetPoint" />
          </mxGeometry>
        </mxCell>
        <mxCell id="xoYDqxQ6D_OFkGm3SUuN-13" value="" style="endArrow=none;html=1;rounded=0;" edge="1" parent="xoYDqxQ6D_OFkGm3SUuN-11">
          <mxGeometry width="50" height="50" relative="1" as="geometry">
            <mxPoint x="10" y="10" as="sourcePoint" />
            <mxPoint x="50" y="10" as="targetPoint" />
          </mxGeometry>
        </mxCell>
        <mxCell id="xoYDqxQ6D_OFkGm3SUuN-14" value="" style="endArrow=none;html=1;rounded=0;" edge="1" parent="xoYDqxQ6D_OFkGm3SUuN-11">
          <mxGeometry width="50" height="50" relative="1" as="geometry">
            <mxPoint x="20" y="20" as="sourcePoint" />
            <mxPoint x="40" y="20" as="targetPoint" />
          </mxGeometry>
        </mxCell>
        <mxCell id="xoYDqxQ6D_OFkGm3SUuN-15" value="" style="endArrow=classic;html=1;rounded=0;exitX=0.5;exitY=1;exitDx=0;exitDy=0;" edge="1" parent="xoYDqxQ6D_OFkGm3SUuN-1" source="xoYDqxQ6D_OFkGm3SUuN-3">
          <mxGeometry width="50" height="50" relative="1" as="geometry">
            <mxPoint x="400" y="260" as="sourcePoint" />
            <mxPoint x="370" y="160" as="targetPoint" />
          </mxGeometry>
        </mxCell>
        <mxCell id="xoYDqxQ6D_OFkGm3SUuN-16" value="" style="endArrow=classic;html=1;rounded=0;exitX=0.5;exitY=1;exitDx=0;exitDy=0;" edge="1" parent="xoYDqxQ6D_OFkGm3SUuN-1">
          <mxGeometry width="50" height="50" relative="1" as="geometry">
            <mxPoint x="472" y="120" as="sourcePoint" />
            <mxPoint x="472" y="160" as="targetPoint" />
          </mxGeometry>
        </mxCell>
        <mxCell id="G4A2wdxamZvU7nLNMpsc-0" value="100" style="whiteSpace=wrap;html=1;aspect=fixed;" vertex="1" parent="xoYDqxQ6D_OFkGm3SUuN-1">
          <mxGeometry x="395" y="230" width="60" height="60" as="geometry" />
        </mxCell>
        <mxCell id="G4A2wdxamZvU7nLNMpsc-1" value="" style="endArrow=classic;html=1;rounded=0;exitX=0.5;exitY=1;exitDx=0;exitDy=0;" edge="1" parent="xoYDqxQ6D_OFkGm3SUuN-1">
          <mxGeometry width="50" height="50" relative="1" as="geometry">
            <mxPoint x="425" y="290" as="sourcePoint" />
            <mxPoint x="425" y="330" as="targetPoint" />
          </mxGeometry>
        </mxCell>
        <mxCell id="G4A2wdxamZvU7nLNMpsc-2" value="" style="group" vertex="1" connectable="0" parent="xoYDqxQ6D_OFkGm3SUuN-1">
          <mxGeometry x="395" y="330" width="60" height="20" as="geometry" />
        </mxCell>
        <mxCell id="G4A2wdxamZvU7nLNMpsc-3" value="" style="endArrow=none;html=1;rounded=0;" edge="1" parent="G4A2wdxamZvU7nLNMpsc-2">
          <mxGeometry width="50" height="50" relative="1" as="geometry">
            <mxPoint as="sourcePoint" />
            <mxPoint x="60" as="targetPoint" />
          </mxGeometry>
        </mxCell>
        <mxCell id="G4A2wdxamZvU7nLNMpsc-4" value="" style="endArrow=none;html=1;rounded=0;" edge="1" parent="G4A2wdxamZvU7nLNMpsc-2">
          <mxGeometry width="50" height="50" relative="1" as="geometry">
            <mxPoint x="10" y="10" as="sourcePoint" />
            <mxPoint x="50" y="10" as="targetPoint" />
          </mxGeometry>
        </mxCell>
        <mxCell id="G4A2wdxamZvU7nLNMpsc-5" value="" style="endArrow=none;html=1;rounded=0;" edge="1" parent="G4A2wdxamZvU7nLNMpsc-2">
          <mxGeometry width="50" height="50" relative="1" as="geometry">
            <mxPoint x="20" y="20" as="sourcePoint" />
            <mxPoint x="40" y="20" as="targetPoint" />
          </mxGeometry>
        </mxCell>
      </root>
    </mxGraphModel>
  </diagram>
  <diagram name="3" id="YYhuZmaaYXs-O4i8gXkx">
    <mxGraphModel dx="1134" dy="690" grid="1" gridSize="10" guides="1" tooltips="1" connect="1" arrows="1" fold="1" page="1" pageScale="1" pageWidth="850" pageHeight="1100" math="0" shadow="0">
      <root>
        <mxCell id="Y8uSDGkvhWcuFBjdWSC7-0" />
        <mxCell id="Y8uSDGkvhWcuFBjdWSC7-1" parent="Y8uSDGkvhWcuFBjdWSC7-0" />
        <mxCell id="Y8uSDGkvhWcuFBjdWSC7-2" value="" style="rounded=0;whiteSpace=wrap;html=1;" vertex="1" parent="Y8uSDGkvhWcuFBjdWSC7-1">
          <mxGeometry x="320" y="40" width="205" height="80" as="geometry" />
        </mxCell>
        <mxCell id="Y8uSDGkvhWcuFBjdWSC7-3" value="Início" style="rounded=0;whiteSpace=wrap;html=1;" vertex="1" parent="Y8uSDGkvhWcuFBjdWSC7-1">
          <mxGeometry x="320" y="80" width="100" height="40" as="geometry" />
        </mxCell>
        <mxCell id="Y8uSDGkvhWcuFBjdWSC7-4" value="Fim" style="rounded=0;whiteSpace=wrap;html=1;" vertex="1" parent="Y8uSDGkvhWcuFBjdWSC7-1">
          <mxGeometry x="420" y="80" width="105" height="40" as="geometry" />
        </mxCell>
        <mxCell id="Y8uSDGkvhWcuFBjdWSC7-5" style="edgeStyle=orthogonalEdgeStyle;rounded=0;orthogonalLoop=1;jettySize=auto;html=1;exitX=0.5;exitY=1;exitDx=0;exitDy=0;entryX=0;entryY=0;entryDx=0;entryDy=0;" edge="1" parent="Y8uSDGkvhWcuFBjdWSC7-1" source="Y8uSDGkvhWcuFBjdWSC7-6" target="Y8uSDGkvhWcuFBjdWSC7-4">
          <mxGeometry relative="1" as="geometry" />
        </mxCell>
        <mxCell id="Y8uSDGkvhWcuFBjdWSC7-6" value="Lista" style="text;html=1;align=center;verticalAlign=middle;whiteSpace=wrap;rounded=0;" vertex="1" parent="Y8uSDGkvhWcuFBjdWSC7-1">
          <mxGeometry x="392.5" y="40" width="60" height="30" as="geometry" />
        </mxCell>
        <mxCell id="Y8uSDGkvhWcuFBjdWSC7-7" value="" style="group" vertex="1" connectable="0" parent="Y8uSDGkvhWcuFBjdWSC7-1">
          <mxGeometry x="442.5" y="160" width="60" height="20" as="geometry" />
        </mxCell>
        <mxCell id="Y8uSDGkvhWcuFBjdWSC7-8" value="" style="endArrow=none;html=1;rounded=0;" edge="1" parent="Y8uSDGkvhWcuFBjdWSC7-7">
          <mxGeometry width="50" height="50" relative="1" as="geometry">
            <mxPoint as="sourcePoint" />
            <mxPoint x="60" as="targetPoint" />
          </mxGeometry>
        </mxCell>
        <mxCell id="Y8uSDGkvhWcuFBjdWSC7-9" value="" style="endArrow=none;html=1;rounded=0;" edge="1" parent="Y8uSDGkvhWcuFBjdWSC7-7">
          <mxGeometry width="50" height="50" relative="1" as="geometry">
            <mxPoint x="10" y="10" as="sourcePoint" />
            <mxPoint x="50" y="10" as="targetPoint" />
            <Array as="points">
              <mxPoint x="17.5" y="10" />
            </Array>
          </mxGeometry>
        </mxCell>
        <mxCell id="Y8uSDGkvhWcuFBjdWSC7-10" value="" style="endArrow=none;html=1;rounded=0;" edge="1" parent="Y8uSDGkvhWcuFBjdWSC7-7">
          <mxGeometry width="50" height="50" relative="1" as="geometry">
            <mxPoint x="20" y="20" as="sourcePoint" />
            <mxPoint x="40" y="20" as="targetPoint" />
          </mxGeometry>
        </mxCell>
        <mxCell id="Y8uSDGkvhWcuFBjdWSC7-15" value="" style="endArrow=classic;html=1;rounded=0;exitX=0.5;exitY=1;exitDx=0;exitDy=0;entryX=0.5;entryY=0;entryDx=0;entryDy=0;" edge="1" parent="Y8uSDGkvhWcuFBjdWSC7-1" source="Y8uSDGkvhWcuFBjdWSC7-3" target="Y8uSDGkvhWcuFBjdWSC7-17">
          <mxGeometry width="50" height="50" relative="1" as="geometry">
            <mxPoint x="400" y="260" as="sourcePoint" />
            <mxPoint x="370" y="160" as="targetPoint" />
          </mxGeometry>
        </mxCell>
        <mxCell id="Y8uSDGkvhWcuFBjdWSC7-16" value="" style="endArrow=classic;html=1;rounded=0;exitX=0.5;exitY=1;exitDx=0;exitDy=0;" edge="1" parent="Y8uSDGkvhWcuFBjdWSC7-1">
          <mxGeometry width="50" height="50" relative="1" as="geometry">
            <mxPoint x="472" y="120" as="sourcePoint" />
            <mxPoint x="472" y="160" as="targetPoint" />
          </mxGeometry>
        </mxCell>
        <mxCell id="Y8uSDGkvhWcuFBjdWSC7-17" value="100" style="whiteSpace=wrap;html=1;aspect=fixed;" vertex="1" parent="Y8uSDGkvhWcuFBjdWSC7-1">
          <mxGeometry x="395" y="230" width="60" height="60" as="geometry" />
        </mxCell>
        <mxCell id="Y8uSDGkvhWcuFBjdWSC7-18" value="" style="endArrow=classic;html=1;rounded=0;exitX=0.5;exitY=1;exitDx=0;exitDy=0;" edge="1" parent="Y8uSDGkvhWcuFBjdWSC7-1">
          <mxGeometry width="50" height="50" relative="1" as="geometry">
            <mxPoint x="425" y="290" as="sourcePoint" />
            <mxPoint x="425" y="330" as="targetPoint" />
          </mxGeometry>
        </mxCell>
        <mxCell id="Y8uSDGkvhWcuFBjdWSC7-19" value="" style="group" vertex="1" connectable="0" parent="Y8uSDGkvhWcuFBjdWSC7-1">
          <mxGeometry x="395" y="330" width="60" height="20" as="geometry" />
        </mxCell>
        <mxCell id="Y8uSDGkvhWcuFBjdWSC7-20" value="" style="endArrow=none;html=1;rounded=0;" edge="1" parent="Y8uSDGkvhWcuFBjdWSC7-19">
          <mxGeometry width="50" height="50" relative="1" as="geometry">
            <mxPoint as="sourcePoint" />
            <mxPoint x="60" as="targetPoint" />
          </mxGeometry>
        </mxCell>
        <mxCell id="Y8uSDGkvhWcuFBjdWSC7-21" value="" style="endArrow=none;html=1;rounded=0;" edge="1" parent="Y8uSDGkvhWcuFBjdWSC7-19">
          <mxGeometry width="50" height="50" relative="1" as="geometry">
            <mxPoint x="10" y="10" as="sourcePoint" />
            <mxPoint x="50" y="10" as="targetPoint" />
          </mxGeometry>
        </mxCell>
        <mxCell id="Y8uSDGkvhWcuFBjdWSC7-22" value="" style="endArrow=none;html=1;rounded=0;" edge="1" parent="Y8uSDGkvhWcuFBjdWSC7-19">
          <mxGeometry width="50" height="50" relative="1" as="geometry">
            <mxPoint x="20" y="20" as="sourcePoint" />
            <mxPoint x="40" y="20" as="targetPoint" />
          </mxGeometry>
        </mxCell>
      </root>
    </mxGraphModel>
  </diagram>
  <diagram name="4" id="NAbo-a6vgW2ARSU8GuHT">
    <mxGraphModel dx="1134" dy="690" grid="1" gridSize="10" guides="1" tooltips="1" connect="1" arrows="1" fold="1" page="1" pageScale="1" pageWidth="850" pageHeight="1100" math="0" shadow="0">
      <root>
        <mxCell id="2zEAY6ZeBKOhlfh3eoN0-0" />
        <mxCell id="2zEAY6ZeBKOhlfh3eoN0-1" parent="2zEAY6ZeBKOhlfh3eoN0-0" />
        <mxCell id="2zEAY6ZeBKOhlfh3eoN0-2" value="" style="rounded=0;whiteSpace=wrap;html=1;" vertex="1" parent="2zEAY6ZeBKOhlfh3eoN0-1">
          <mxGeometry x="320" y="40" width="205" height="80" as="geometry" />
        </mxCell>
        <mxCell id="2zEAY6ZeBKOhlfh3eoN0-3" value="Início" style="rounded=0;whiteSpace=wrap;html=1;" vertex="1" parent="2zEAY6ZeBKOhlfh3eoN0-1">
          <mxGeometry x="320" y="80" width="100" height="40" as="geometry" />
        </mxCell>
        <mxCell id="2zEAY6ZeBKOhlfh3eoN0-4" value="Fim" style="rounded=0;whiteSpace=wrap;html=1;" vertex="1" parent="2zEAY6ZeBKOhlfh3eoN0-1">
          <mxGeometry x="420" y="80" width="105" height="40" as="geometry" />
        </mxCell>
        <mxCell id="2zEAY6ZeBKOhlfh3eoN0-6" value="Lista" style="text;html=1;align=center;verticalAlign=middle;whiteSpace=wrap;rounded=0;" vertex="1" parent="2zEAY6ZeBKOhlfh3eoN0-1">
          <mxGeometry x="392.5" y="40" width="60" height="30" as="geometry" />
        </mxCell>
        <mxCell id="2zEAY6ZeBKOhlfh3eoN0-11" value="" style="endArrow=classic;html=1;rounded=0;exitX=0.5;exitY=1;exitDx=0;exitDy=0;entryX=0.25;entryY=0;entryDx=0;entryDy=0;" edge="1" parent="2zEAY6ZeBKOhlfh3eoN0-1" source="2zEAY6ZeBKOhlfh3eoN0-3" target="2zEAY6ZeBKOhlfh3eoN0-13">
          <mxGeometry width="50" height="50" relative="1" as="geometry">
            <mxPoint x="400" y="260" as="sourcePoint" />
            <mxPoint x="370" y="160" as="targetPoint" />
          </mxGeometry>
        </mxCell>
        <mxCell id="2zEAY6ZeBKOhlfh3eoN0-12" value="" style="endArrow=classic;html=1;rounded=0;exitX=0.5;exitY=1;exitDx=0;exitDy=0;entryX=0.75;entryY=0;entryDx=0;entryDy=0;" edge="1" parent="2zEAY6ZeBKOhlfh3eoN0-1" target="2zEAY6ZeBKOhlfh3eoN0-13">
          <mxGeometry width="50" height="50" relative="1" as="geometry">
            <mxPoint x="472" y="120" as="sourcePoint" />
            <mxPoint x="472" y="160" as="targetPoint" />
          </mxGeometry>
        </mxCell>
        <mxCell id="2zEAY6ZeBKOhlfh3eoN0-13" value="100" style="whiteSpace=wrap;html=1;aspect=fixed;" vertex="1" parent="2zEAY6ZeBKOhlfh3eoN0-1">
          <mxGeometry x="395" y="230" width="60" height="60" as="geometry" />
        </mxCell>
        <mxCell id="2zEAY6ZeBKOhlfh3eoN0-14" value="" style="endArrow=classic;html=1;rounded=0;exitX=0.5;exitY=1;exitDx=0;exitDy=0;" edge="1" parent="2zEAY6ZeBKOhlfh3eoN0-1">
          <mxGeometry width="50" height="50" relative="1" as="geometry">
            <mxPoint x="425" y="290" as="sourcePoint" />
            <mxPoint x="425" y="330" as="targetPoint" />
          </mxGeometry>
        </mxCell>
        <mxCell id="2zEAY6ZeBKOhlfh3eoN0-15" value="" style="group" vertex="1" connectable="0" parent="2zEAY6ZeBKOhlfh3eoN0-1">
          <mxGeometry x="395" y="330" width="60" height="20" as="geometry" />
        </mxCell>
        <mxCell id="2zEAY6ZeBKOhlfh3eoN0-16" value="" style="endArrow=none;html=1;rounded=0;" edge="1" parent="2zEAY6ZeBKOhlfh3eoN0-15">
          <mxGeometry width="50" height="50" relative="1" as="geometry">
            <mxPoint as="sourcePoint" />
            <mxPoint x="60" as="targetPoint" />
          </mxGeometry>
        </mxCell>
        <mxCell id="2zEAY6ZeBKOhlfh3eoN0-17" value="" style="endArrow=none;html=1;rounded=0;" edge="1" parent="2zEAY6ZeBKOhlfh3eoN0-15">
          <mxGeometry width="50" height="50" relative="1" as="geometry">
            <mxPoint x="10" y="10" as="sourcePoint" />
            <mxPoint x="50" y="10" as="targetPoint" />
          </mxGeometry>
        </mxCell>
        <mxCell id="2zEAY6ZeBKOhlfh3eoN0-18" value="" style="endArrow=none;html=1;rounded=0;" edge="1" parent="2zEAY6ZeBKOhlfh3eoN0-15">
          <mxGeometry width="50" height="50" relative="1" as="geometry">
            <mxPoint x="20" y="20" as="sourcePoint" />
            <mxPoint x="40" y="20" as="targetPoint" />
          </mxGeometry>
        </mxCell>
        <mxCell id="B00i5ifSEVLWiwSNQNWF-0" value="Inserido!" style="text;html=1;align=center;verticalAlign=middle;resizable=0;points=[];autosize=1;strokeColor=none;fillColor=none;" vertex="1" parent="2zEAY6ZeBKOhlfh3eoN0-1">
          <mxGeometry x="465" y="208" width="70" height="30" as="geometry" />
        </mxCell>
      </root>
    </mxGraphModel>
  </diagram>
  <diagram name="5" id="MAW_ztccqqTk0lNLJv55">
    <mxGraphModel dx="1134" dy="690" grid="1" gridSize="10" guides="1" tooltips="1" connect="1" arrows="1" fold="1" page="1" pageScale="1" pageWidth="850" pageHeight="1100" math="0" shadow="0">
      <root>
        <mxCell id="PTLmyTEsqw7ra9p6NHUe-0" />
        <mxCell id="PTLmyTEsqw7ra9p6NHUe-1" parent="PTLmyTEsqw7ra9p6NHUe-0" />
        <mxCell id="PTLmyTEsqw7ra9p6NHUe-2" value="" style="rounded=0;whiteSpace=wrap;html=1;" vertex="1" parent="PTLmyTEsqw7ra9p6NHUe-1">
          <mxGeometry x="320" y="40" width="205" height="80" as="geometry" />
        </mxCell>
        <mxCell id="PTLmyTEsqw7ra9p6NHUe-3" value="Início" style="rounded=0;whiteSpace=wrap;html=1;" vertex="1" parent="PTLmyTEsqw7ra9p6NHUe-1">
          <mxGeometry x="320" y="80" width="100" height="40" as="geometry" />
        </mxCell>
        <mxCell id="PTLmyTEsqw7ra9p6NHUe-4" value="Fim" style="rounded=0;whiteSpace=wrap;html=1;" vertex="1" parent="PTLmyTEsqw7ra9p6NHUe-1">
          <mxGeometry x="420" y="80" width="105" height="40" as="geometry" />
        </mxCell>
        <mxCell id="PTLmyTEsqw7ra9p6NHUe-5" value="Lista" style="text;html=1;align=center;verticalAlign=middle;whiteSpace=wrap;rounded=0;" vertex="1" parent="PTLmyTEsqw7ra9p6NHUe-1">
          <mxGeometry x="392.5" y="40" width="60" height="30" as="geometry" />
        </mxCell>
        <mxCell id="PTLmyTEsqw7ra9p6NHUe-6" value="" style="endArrow=classic;html=1;rounded=0;exitX=0.5;exitY=1;exitDx=0;exitDy=0;entryX=0.25;entryY=0;entryDx=0;entryDy=0;" edge="1" parent="PTLmyTEsqw7ra9p6NHUe-1" source="PTLmyTEsqw7ra9p6NHUe-3" target="PTLmyTEsqw7ra9p6NHUe-8">
          <mxGeometry width="50" height="50" relative="1" as="geometry">
            <mxPoint x="400" y="260" as="sourcePoint" />
            <mxPoint x="370" y="160" as="targetPoint" />
          </mxGeometry>
        </mxCell>
        <mxCell id="PTLmyTEsqw7ra9p6NHUe-7" value="" style="endArrow=classic;html=1;rounded=0;exitX=0.5;exitY=1;exitDx=0;exitDy=0;entryX=0.75;entryY=0;entryDx=0;entryDy=0;" edge="1" parent="PTLmyTEsqw7ra9p6NHUe-1" target="PTLmyTEsqw7ra9p6NHUe-8">
          <mxGeometry width="50" height="50" relative="1" as="geometry">
            <mxPoint x="472" y="120" as="sourcePoint" />
            <mxPoint x="472" y="160" as="targetPoint" />
          </mxGeometry>
        </mxCell>
        <mxCell id="PTLmyTEsqw7ra9p6NHUe-8" value="100" style="whiteSpace=wrap;html=1;aspect=fixed;" vertex="1" parent="PTLmyTEsqw7ra9p6NHUe-1">
          <mxGeometry x="395" y="230" width="60" height="60" as="geometry" />
        </mxCell>
        <mxCell id="PTLmyTEsqw7ra9p6NHUe-9" value="" style="endArrow=classic;html=1;rounded=0;exitX=0.5;exitY=1;exitDx=0;exitDy=0;" edge="1" parent="PTLmyTEsqw7ra9p6NHUe-1">
          <mxGeometry width="50" height="50" relative="1" as="geometry">
            <mxPoint x="425" y="290" as="sourcePoint" />
            <mxPoint x="425" y="330" as="targetPoint" />
          </mxGeometry>
        </mxCell>
        <mxCell id="PTLmyTEsqw7ra9p6NHUe-10" value="" style="group" vertex="1" connectable="0" parent="PTLmyTEsqw7ra9p6NHUe-1">
          <mxGeometry x="395" y="330" width="60" height="20" as="geometry" />
        </mxCell>
        <mxCell id="PTLmyTEsqw7ra9p6NHUe-11" value="" style="endArrow=none;html=1;rounded=0;" edge="1" parent="PTLmyTEsqw7ra9p6NHUe-10">
          <mxGeometry width="50" height="50" relative="1" as="geometry">
            <mxPoint as="sourcePoint" />
            <mxPoint x="60" as="targetPoint" />
          </mxGeometry>
        </mxCell>
        <mxCell id="PTLmyTEsqw7ra9p6NHUe-12" value="" style="endArrow=none;html=1;rounded=0;" edge="1" parent="PTLmyTEsqw7ra9p6NHUe-10">
          <mxGeometry width="50" height="50" relative="1" as="geometry">
            <mxPoint x="10" y="10" as="sourcePoint" />
            <mxPoint x="50" y="10" as="targetPoint" />
          </mxGeometry>
        </mxCell>
        <mxCell id="PTLmyTEsqw7ra9p6NHUe-13" value="" style="endArrow=none;html=1;rounded=0;" edge="1" parent="PTLmyTEsqw7ra9p6NHUe-10">
          <mxGeometry width="50" height="50" relative="1" as="geometry">
            <mxPoint x="20" y="20" as="sourcePoint" />
            <mxPoint x="40" y="20" as="targetPoint" />
          </mxGeometry>
        </mxCell>
        <mxCell id="PTLmyTEsqw7ra9p6NHUe-15" value="Ponteiro Aux" style="text;html=1;align=center;verticalAlign=middle;whiteSpace=wrap;rounded=0;" vertex="1" parent="PTLmyTEsqw7ra9p6NHUe-1">
          <mxGeometry x="230" y="190" width="80" height="30" as="geometry" />
        </mxCell>
        <mxCell id="PTLmyTEsqw7ra9p6NHUe-16" value="" style="endArrow=classic;html=1;rounded=0;exitX=0.5;exitY=1;exitDx=0;exitDy=0;entryX=-0.033;entryY=0.617;entryDx=0;entryDy=0;entryPerimeter=0;" edge="1" parent="PTLmyTEsqw7ra9p6NHUe-1" source="PTLmyTEsqw7ra9p6NHUe-15" target="PTLmyTEsqw7ra9p6NHUe-8">
          <mxGeometry width="50" height="50" relative="1" as="geometry">
            <mxPoint x="400" y="380" as="sourcePoint" />
            <mxPoint x="450" y="330" as="targetPoint" />
          </mxGeometry>
        </mxCell>
      </root>
    </mxGraphModel>
  </diagram>
  <diagram name="6" id="eqqKtS-AlP7PxhmLVwFB">
    <mxGraphModel dx="1134" dy="690" grid="1" gridSize="10" guides="1" tooltips="1" connect="1" arrows="1" fold="1" page="1" pageScale="1" pageWidth="850" pageHeight="1100" math="0" shadow="0">
      <root>
        <mxCell id="mjY-kB8uYrADzk2SosYB-0" />
        <mxCell id="mjY-kB8uYrADzk2SosYB-1" parent="mjY-kB8uYrADzk2SosYB-0" />
        <mxCell id="mjY-kB8uYrADzk2SosYB-2" value="" style="rounded=0;whiteSpace=wrap;html=1;" vertex="1" parent="mjY-kB8uYrADzk2SosYB-1">
          <mxGeometry x="320" y="40" width="205" height="80" as="geometry" />
        </mxCell>
        <mxCell id="mjY-kB8uYrADzk2SosYB-3" value="Início" style="rounded=0;whiteSpace=wrap;html=1;" vertex="1" parent="mjY-kB8uYrADzk2SosYB-1">
          <mxGeometry x="320" y="80" width="100" height="40" as="geometry" />
        </mxCell>
        <mxCell id="mjY-kB8uYrADzk2SosYB-4" value="Fim" style="rounded=0;whiteSpace=wrap;html=1;" vertex="1" parent="mjY-kB8uYrADzk2SosYB-1">
          <mxGeometry x="420" y="80" width="105" height="40" as="geometry" />
        </mxCell>
        <mxCell id="mjY-kB8uYrADzk2SosYB-5" value="Lista" style="text;html=1;align=center;verticalAlign=middle;whiteSpace=wrap;rounded=0;" vertex="1" parent="mjY-kB8uYrADzk2SosYB-1">
          <mxGeometry x="392.5" y="40" width="60" height="30" as="geometry" />
        </mxCell>
        <mxCell id="mjY-kB8uYrADzk2SosYB-6" value="" style="endArrow=classic;html=1;rounded=0;exitX=0.5;exitY=1;exitDx=0;exitDy=0;entryX=0.25;entryY=0;entryDx=0;entryDy=0;" edge="1" parent="mjY-kB8uYrADzk2SosYB-1" source="mjY-kB8uYrADzk2SosYB-3" target="mjY-kB8uYrADzk2SosYB-8">
          <mxGeometry width="50" height="50" relative="1" as="geometry">
            <mxPoint x="400" y="260" as="sourcePoint" />
            <mxPoint x="370" y="160" as="targetPoint" />
          </mxGeometry>
        </mxCell>
        <mxCell id="mjY-kB8uYrADzk2SosYB-7" value="" style="endArrow=classic;html=1;rounded=0;exitX=0.5;exitY=1;exitDx=0;exitDy=0;entryX=0.75;entryY=0;entryDx=0;entryDy=0;" edge="1" parent="mjY-kB8uYrADzk2SosYB-1" target="mjY-kB8uYrADzk2SosYB-8">
          <mxGeometry width="50" height="50" relative="1" as="geometry">
            <mxPoint x="472" y="120" as="sourcePoint" />
            <mxPoint x="472" y="160" as="targetPoint" />
          </mxGeometry>
        </mxCell>
        <mxCell id="mjY-kB8uYrADzk2SosYB-8" value="100" style="whiteSpace=wrap;html=1;aspect=fixed;" vertex="1" parent="mjY-kB8uYrADzk2SosYB-1">
          <mxGeometry x="395" y="230" width="60" height="60" as="geometry" />
        </mxCell>
        <mxCell id="mjY-kB8uYrADzk2SosYB-9" value="" style="endArrow=classic;html=1;rounded=0;exitX=0.5;exitY=1;exitDx=0;exitDy=0;" edge="1" parent="mjY-kB8uYrADzk2SosYB-1">
          <mxGeometry width="50" height="50" relative="1" as="geometry">
            <mxPoint x="425" y="290" as="sourcePoint" />
            <mxPoint x="425" y="330" as="targetPoint" />
          </mxGeometry>
        </mxCell>
        <mxCell id="mjY-kB8uYrADzk2SosYB-10" value="" style="group" vertex="1" connectable="0" parent="mjY-kB8uYrADzk2SosYB-1">
          <mxGeometry x="395" y="330" width="60" height="20" as="geometry" />
        </mxCell>
        <mxCell id="mjY-kB8uYrADzk2SosYB-11" value="" style="endArrow=none;html=1;rounded=0;" edge="1" parent="mjY-kB8uYrADzk2SosYB-10">
          <mxGeometry width="50" height="50" relative="1" as="geometry">
            <mxPoint as="sourcePoint" />
            <mxPoint x="60" as="targetPoint" />
          </mxGeometry>
        </mxCell>
        <mxCell id="mjY-kB8uYrADzk2SosYB-12" value="" style="endArrow=none;html=1;rounded=0;" edge="1" parent="mjY-kB8uYrADzk2SosYB-10">
          <mxGeometry width="50" height="50" relative="1" as="geometry">
            <mxPoint x="10" y="10" as="sourcePoint" />
            <mxPoint x="50" y="10" as="targetPoint" />
          </mxGeometry>
        </mxCell>
        <mxCell id="mjY-kB8uYrADzk2SosYB-13" value="" style="endArrow=none;html=1;rounded=0;" edge="1" parent="mjY-kB8uYrADzk2SosYB-10">
          <mxGeometry width="50" height="50" relative="1" as="geometry">
            <mxPoint x="20" y="20" as="sourcePoint" />
            <mxPoint x="40" y="20" as="targetPoint" />
          </mxGeometry>
        </mxCell>
        <mxCell id="mjY-kB8uYrADzk2SosYB-14" value="Ponteiro Aux" style="text;html=1;align=center;verticalAlign=middle;whiteSpace=wrap;rounded=0;" vertex="1" parent="mjY-kB8uYrADzk2SosYB-1">
          <mxGeometry x="230" y="190" width="80" height="30" as="geometry" />
        </mxCell>
        <mxCell id="mjY-kB8uYrADzk2SosYB-15" value="" style="endArrow=classic;html=1;rounded=0;exitX=0.5;exitY=1;exitDx=0;exitDy=0;entryX=-0.033;entryY=0.617;entryDx=0;entryDy=0;entryPerimeter=0;" edge="1" parent="mjY-kB8uYrADzk2SosYB-1" source="mjY-kB8uYrADzk2SosYB-14" target="mjY-kB8uYrADzk2SosYB-8">
          <mxGeometry width="50" height="50" relative="1" as="geometry">
            <mxPoint x="400" y="380" as="sourcePoint" />
            <mxPoint x="450" y="330" as="targetPoint" />
          </mxGeometry>
        </mxCell>
        <mxCell id="dRwzySqnrCDplRPwS28n-0" value="" style="shape=cross;whiteSpace=wrap;html=1;rotation=45;fillColor=#f8cecc;strokeColor=#b85450;" vertex="1" parent="mjY-kB8uYrADzk2SosYB-1">
          <mxGeometry x="393" y="225" width="65" height="70" as="geometry" />
        </mxCell>
      </root>
    </mxGraphModel>
  </diagram>
</mxfile>
